# xmcd CD database file
#
# Track frame offsets:
#	150
#	5334
#	24181
#	42680
#	65884
#	83826
#	104679
#	125105
#	144536
#	169161
#	188112
#	207279
#
# Disc length: 3000 seconds
#
# Revision: 0
# Processed by: cddbd v1.5.2PL0 Copyright (c) Steve Scherf et al.
# Submitted via: CDex 1.70beta2
#
DISCID=af0bb60c
DTITLE=Koh Mr.Saxman เศกพล อุ่นสำราญ - The Sound of Saxman
DYEAR=2008
DGENRE=Jazz
TTITLE0=Prelude:The Sound of Saxman
TTITLE1=Retro Nouveau
TTITLE2=อย่างน้อย(ก็เคยรักกัน)
TTITLE3=Just a Game feat. J kim
TTITLE4=Memory of You
TTITLE5=แววตา
TTITLE6=You Are My Inspiration
TTITLE7=A Love To Remember
TTITLE8=If You'd Only feat Be Peerapat
TTITLE9=3 In 1
TTITLE10=Swingin'
TTITLE11=Memory of You feat Darren  Rahn
EXTD=YEAR: 2008
EXTT0=
EXTT1=
EXTT2=
EXTT3=
EXTT4=
EXTT5=
EXTT6=
EXTT7=
EXTT8=
EXTT9=
EXTT10=
EXTT11=
PLAYORDER=
